<?xml version="1.0" ?><svg contentScriptType="text/ecmascript" contentStyleType="text/css" enable-background="new 0 0 2048 2048" height="2048px" id="Layer_1" preserveAspectRatio="xMidYMid meet" version="1.1" viewBox="0.0 0 1536.0 2048" width="1536.0px" xml:space="preserve" xmlns="http://www.w3.org/2000/svg" xmlns:xlink="http://www.w3.org/1999/xlink" zoomAndPan="magnify"><path d="M1312,1021c0-107.333-29-205.667-87-295l-754,753c91.333,59.333,190.333,89,297,89c74,0,144.5-14.5,211.5-43.5  s124.833-67.833,173.5-116.5s87.333-106.833,116-174.5S1312,1095,1312,1021z M313,1320l755-754c-90-60.667-190-91-300-91  c-98.667,0-189.667,24.333-273,73S345.667,663,297,747s-73,175.333-73,274C224,1129,253.667,1228.667,313,1320z M1536,1021  c0,104.667-20.333,204.667-61,300s-95.167,177.333-163.5,246s-150,123.333-245,164S872,1792,768,1792s-203.5-20.333-298.5-61  s-176.667-95.333-245-164S101.667,1416.333,61,1321S0,1125.667,0,1021s20.333-204.5,61-299.5S156.167,544.667,224.5,476  s150-123.333,245-164S664,251,768,251s203.5,20.333,298.5,61s176.667,95.333,245,164s122.833,150.5,163.5,245.5  S1536,916.333,1536,1021z"/></svg>