<?xml version="1.0" ?><svg contentScriptType="text/ecmascript" contentStyleType="text/css" enable-background="new 0 0 2048 2048" height="2048px" id="Layer_1" preserveAspectRatio="xMidYMid meet" version="1.1" viewBox="0.0 0 1792.0 2048" width="1792.0px" xml:space="preserve" xmlns="http://www.w3.org/2000/svg" xmlns:xlink="http://www.w3.org/1999/xlink" zoomAndPan="magnify"><path d="M666,609c-40,61.333-85.667,152.333-137,273c-14.667-30-27-54.167-37-72.5S468.5,770,451.5,746s-34-42.833-51-56.5  s-38-25.333-63-35S285.333,640,256,640H32c-9.333,0-17-3-23-9s-9-13.667-9-23V416c0-9.333,3-17,9-23s13.667-9,23-9h224  C422.667,384,559.333,459,666,609z M1792,1408c0,9.333-3,17-9,23l-320,320c-6,6-13.667,9-23,9c-8.667,0-16.167-3.167-22.5-9.5  s-9.5-13.833-9.5-22.5v-192c-21.333,0-49.667,0.167-85,0.5s-62.333,0.667-81,1s-43,0-73-1s-53.667-2.667-71-5s-38.667-5.833-64-10.5  c-25.333-4.667-46.333-10.833-63-18.5s-36-17.167-58-28.5s-41.667-24.667-59-40s-35.667-33.167-55-53.5s-38-43.5-56-69.5  c39.333-62,84.667-153,136-273c14.667,30,27,54.167,37,72.5s23.5,39.5,40.5,63.5s34,42.833,51,56.5s38,25.333,63,35  s52.167,14.5,81.5,14.5h256v-192c0-9.333,3-17,9-23s13.667-9,23-9c8,0,16,3.333,24,10l319,319C1789,1391,1792,1398.667,1792,1408z   M1792,512c0,9.333-3,17-9,23l-320,320c-6,6-13.667,9-23,9c-8.667,0-16.167-3.167-22.5-9.5s-9.5-13.833-9.5-22.5V640h-256  c-32,0-61,5-87,15s-49,25-69,45s-37,40.5-51,61.5s-29,46.833-45,77.5c-21.333,41.333-47.333,98.333-78,171  c-19.333,44-35.833,81-49.5,111s-31.667,65-54,105s-43.667,73.333-64,100s-45,54.333-74,83s-59,51.5-90,68.5s-66.5,31-106.5,42  s-82.667,16.5-128,16.5H32c-9.333,0-17-3-23-9s-9-13.667-9-23v-192c0-9.333,3-17,9-23s13.667-9,23-9h224c32,0,61-5,87-15  s49-25,69-45s37-40.5,51-61.5s29-46.833,45-77.5c21.333-41.333,47.333-98.333,78-171c19.333-44,35.833-81,49.5-111s31.667-65,54-105  s43.667-73.333,64-100s45-54.333,74-83s59-51.5,90-68.5s66.5-31,106.5-42s82.667-16.5,128-16.5h256V192c0-9.333,3-17,9-23  s13.667-9,23-9c8,0,16,3.333,24,10l319,319C1789,495,1792,502.667,1792,512z"/></svg>