<?xml version="1.0" ?><svg contentScriptType="text/ecmascript" contentStyleType="text/css" enable-background="new 0 0 2048 2048" height="2048px" id="Layer_1" preserveAspectRatio="xMidYMid meet" version="1.1" viewBox="0.0 0 1536.0 2048" width="1536.0px" xml:space="preserve" xmlns="http://www.w3.org/2000/svg" xmlns:xlink="http://www.w3.org/1999/xlink" zoomAndPan="magnify"><path d="M1024,1024c0,70.667-25,131-75,181s-110.333,75-181,75s-131-25-181-75s-75-110.333-75-181s25-131,75-181s110.333-75,181-75  s131,25,181,75S1024,953.333,1024,1024z M1152,1024c0-106-37.5-196.5-112.5-271.5S874,640,768,640s-196.5,37.5-271.5,112.5  S384,918,384,1024s37.5,196.5,112.5,271.5S662,1408,768,1408s196.5-37.5,271.5-112.5S1152,1130,1152,1024z M1280,1024  c0,141.333-50,262-150,362s-220.667,150-362,150s-262-50-362-150s-150-220.667-150-362s50-262,150-362s220.667-150,362-150  s262,50,362,150S1280,882.667,1280,1024z M1408,1024c0-86.667-17-169.5-51-248.5s-79.5-147-136.5-204s-125-102.5-204-136.5  S854.667,384,768,384s-169.5,17-248.5,51s-147,79.5-204,136.5S213,696.5,179,775.5s-51,161.833-51,248.5s17,169.5,51,248.5  s79.5,147,136.5,204s125,102.5,204,136.5s161.833,51,248.5,51s169.5-17,248.5-51s147-79.5,204-136.5s102.5-125,136.5-204  S1408,1110.667,1408,1024z M1536,1024c0,139.333-34.333,267.833-103,385.5s-161.833,210.833-279.5,279.5S907.333,1792,768,1792  s-267.833-34.333-385.5-103S171.667,1527.167,103,1409.5S0,1163.333,0,1024s34.333-267.833,103-385.5S264.833,427.667,382.5,359  S628.667,256,768,256s267.833,34.333,385.5,103s210.833,161.833,279.5,279.5S1536,884.667,1536,1024z"/></svg>